<svg xmlns="http://www.w3.org/2000/svg" width="172.469" height="157.307" viewBox="0 0 172.469 157.307">
  <g transform="translate(-0.001 1.578)">
    <path d="M0,0H150.523V13.684H0Z" transform="translate(4.122 54.991) rotate(-16.244)" fill="#2d6287"/>
    <path d="M337.458,308.4l-21.3-73.106a2.129,2.129,0,0,1,1.448-2.639l141.011-41.085a2.131,2.131,0,0,1,2.639,1.448l18.87,64.767-.584.17-18.87-64.767a1.523,1.523,0,0,0-1.885-1.034l-141.01,41.085a1.521,1.521,0,0,0-1.034,1.885l21.3,73.106Z" transform="translate(-316.071 -193.068)" fill="#3f3d56"/>
    <path d="M740.232,365.225a1.98,1.98,0,0,1-1.9-1.424l-3.573-12.262a1.979,1.979,0,0,1,1.345-2.451l12.262-3.573a1.979,1.979,0,0,1,2.45,1.345l3.573,12.262a1.979,1.979,0,0,1-1.345,2.451l-12.262,3.573A1.971,1.971,0,0,1,740.232,365.225Z" transform="translate(-607.387 -300.202)" fill="#58abc8"/>
    <path d="M368.945,330.28a3.547,3.547,0,0,0-.131-.371,3.649,3.649,0,0,0-6.966,2.028,3.455,3.455,0,0,0,.088.383,3.655,3.655,0,0,0,3.506,2.627,3.572,3.572,0,0,0,1.019-.146,3.653,3.653,0,0,0,2.484-4.522Zm-2.655,3.938a3.045,3.045,0,0,1-3.771-2.068,3.483,3.483,0,0,1-.085-.383,3.04,3.04,0,0,1,5.79-1.685,2.541,2.541,0,0,1,.137.368,3.042,3.042,0,0,1-2.071,3.768Z" transform="translate(-347.887 -287.823)" fill="#58abc8"/>
    <path d="M350.786,336.47a3.346,3.346,0,0,1,1.28-3.666,3.345,3.345,0,1,0,1.769,6.072A3.346,3.346,0,0,1,350.786,336.47Z" transform="translate(-338.678 -291.407)" fill="#58abc8"/>
    <path d="M610.385,391.352a1.837,1.837,0,0,0-2.265-1.277l-20.188,5.647-2.174.608h13.653l2.174-.608,7.526-2.1a1.839,1.839,0,0,0,1.274-2.265Z" transform="translate(-503.748 -331.218)" fill="#ccc"/>
    <path d="M542.194,377.487a1.838,1.838,0,0,0-2.266-1.274l-30.293,8.472a1.845,1.845,0,0,0-1.329,2h7.842l2.177-.608,22.594-6.319a1.841,1.841,0,0,0,1.274-2.269Z" transform="translate(-449.84 -321.572)" fill="#ccc"/>
    <path d="M535.244,408.8H388.37a2.131,2.131,0,0,0-2.129,2.129V497.9a2.131,2.131,0,0,0,2.129,2.129H535.244a2.131,2.131,0,0,0,2.129-2.129V410.926A2.131,2.131,0,0,0,535.244,408.8Zm1.52,89.1a1.521,1.521,0,0,1-1.52,1.52H388.37a1.521,1.521,0,0,1-1.52-1.52V410.926a1.521,1.521,0,0,1,1.52-1.52H535.244a1.521,1.521,0,0,1,1.52,1.52Z" transform="translate(-364.902 -344.295)" fill="#3f3d56"/>
    <path d="M431.887,431.1a3.649,3.649,0,1,1,3.649-3.649A3.649,3.649,0,0,1,431.887,431.1Zm0-6.69a3.041,3.041,0,1,0,3.041,3.041A3.041,3.041,0,0,0,431.887,424.408Z" transform="translate(-394.128 -354.736)" fill="#5d9f58"/>
    <path d="M416.591,428.145a3.345,3.345,0,0,1,2.254-3.162,3.345,3.345,0,1,0,0,6.324,3.346,3.346,0,0,1-2.254-3.162Z" transform="translate(-384.505 -355.432)" fill="#5d9f58"/>
    <path d="M482.618,546.262a2.74,2.74,0,0,1-2.737-2.737v-8.21a2.737,2.737,0,0,1,5.474,0v8.21A2.74,2.74,0,0,1,482.618,546.262Z" transform="translate(-430.068 -430.436)" fill="#58abc8"/>
    <path d="M506.618,546.262a2.74,2.74,0,0,1-2.737-2.737v-8.21a2.737,2.737,0,1,1,5.474,0v8.21A2.74,2.74,0,0,1,506.618,546.262Z" transform="translate(-446.77 -430.436)" fill="#58abc8"/>
    <path d="M530.618,546.262a2.74,2.74,0,0,1-2.737-2.737v-8.21a2.737,2.737,0,1,1,5.474,0v8.21A2.74,2.74,0,0,1,530.618,546.262Z" transform="translate(-463.471 -430.436)" fill="#58abc8"/>
    <path d="M567.618,546.262a2.74,2.74,0,0,1-2.737-2.737v-8.21a2.737,2.737,0,1,1,5.474,0v8.21A2.74,2.74,0,0,1,567.618,546.262Z" transform="translate(-489.22 -430.436)" fill="#58abc8"/>
    <path d="M591.618,546.262a2.74,2.74,0,0,1-2.737-2.737v-8.21a2.737,2.737,0,1,1,5.474,0v8.21A2.74,2.74,0,0,1,591.618,546.262Z" transform="translate(-505.922 -430.436)" fill="#58abc8"/>
    <path d="M615.618,546.262a2.74,2.74,0,0,1-2.737-2.737v-8.21a2.737,2.737,0,1,1,5.474,0v8.21A2.74,2.74,0,0,1,615.618,546.262Z" transform="translate(-522.624 -430.436)" fill="#58abc8"/>
    <path d="M652.618,546.262a2.74,2.74,0,0,1-2.737-2.737v-8.21a2.737,2.737,0,1,1,5.474,0v8.21a2.74,2.74,0,0,1-2.737,2.737Z" transform="translate(-548.373 -430.436)" fill="#58abc8"/>
    <path d="M676.618,546.262a2.74,2.74,0,0,1-2.737-2.737v-8.21a2.737,2.737,0,1,1,5.474,0v8.21A2.74,2.74,0,0,1,676.618,546.262Z" transform="translate(-565.075 -430.436)" fill="#58abc8"/>
    <path d="M700.618,546.262a2.74,2.74,0,0,1-2.737-2.737v-8.21a2.737,2.737,0,0,1,5.474,0v8.21A2.74,2.74,0,0,1,700.618,546.262Z" transform="translate(-581.777 -430.436)" fill="#58abc8"/>
    <path d="M737.618,546.262a2.74,2.74,0,0,1-2.737-2.737v-8.21a2.737,2.737,0,1,1,5.474,0v8.21A2.74,2.74,0,0,1,737.618,546.262Z" transform="translate(-607.526 -430.436)" fill="#58abc8"/>
    <path d="M761.618,546.262a2.74,2.74,0,0,1-2.737-2.737v-8.21a2.737,2.737,0,1,1,5.474,0v8.21A2.74,2.74,0,0,1,761.618,546.262Z" transform="translate(-624.227 -430.436)" fill="#58abc8"/>
    <path d="M785.618,546.262a2.74,2.74,0,0,1-2.737-2.737v-8.21a2.737,2.737,0,1,1,5.474,0v8.21A2.74,2.74,0,0,1,785.618,546.262Z" transform="translate(-640.929 -430.436)" fill="#58abc8"/>
    <path d="M455.612,669.328H416.25a1.839,1.839,0,0,1,0-3.678h39.361a1.839,1.839,0,1,1,0,3.678Z" transform="translate(-384.506 -523.043)" fill="#e6e6e6"/>
    <path d="M471.872,643.328H457.75a1.839,1.839,0,0,1,0-3.678h14.122a1.839,1.839,0,1,1,0,3.678Z" transform="translate(-413.387 -504.949)" fill="#e6e6e6"/>
    <rect width="149.915" height="0.608" transform="translate(21.838 82.681)" fill="#3f3d56"/>
  </g>
</svg>
